<svg width="16" height="16" viewBox="0 0 16 16" fill="none" xmlns="http://www.w3.org/2000/svg">
<path opacity="0.5" d="M14.6666 6.66634H1.33325V12.6663C1.33325 13.1968 1.54397 13.7055 1.91904 14.0805C2.29411 14.4556 2.80282 14.6663 3.33325 14.6663H12.6666C13.197 14.6663 13.7057 14.4556 14.0808 14.0805C14.4559 13.7055 14.6666 13.1968 14.6666 12.6663V6.66634ZM4.66658 5.33301C4.48977 5.33301 4.3202 5.26277 4.19518 5.13774C4.07016 5.01272 3.99992 4.84315 3.99992 4.66634V1.99967C3.99992 1.82286 4.07016 1.65329 4.19518 1.52827C4.3202 1.40325 4.48977 1.33301 4.66658 1.33301C4.84339 1.33301 5.01296 1.40325 5.13799 1.52827C5.26301 1.65329 5.33325 1.82286 5.33325 1.99967V4.66634C5.33325 4.84315 5.26301 5.01272 5.13799 5.13774C5.01296 5.26277 4.84339 5.33301 4.66658 5.33301ZM11.3332 5.33301C11.1564 5.33301 10.9869 5.26277 10.8618 5.13774C10.7368 5.01272 10.6666 4.84315 10.6666 4.66634V1.99967C10.6666 1.82286 10.7368 1.65329 10.8618 1.52827C10.9869 1.40325 11.1564 1.33301 11.3332 1.33301C11.5101 1.33301 11.6796 1.40325 11.8047 1.52827C11.9297 1.65329 11.9999 1.82286 11.9999 1.99967V4.66634C11.9999 4.84315 11.9297 5.01272 11.8047 5.13774C11.6796 5.26277 11.5101 5.33301 11.3332 5.33301Z" fill="#FFAC88"/>
<path d="M12.6666 2.66699H11.9999V4.66699C11.9999 4.8438 11.9297 5.01337 11.8047 5.1384C11.6796 5.26342 11.5101 5.33366 11.3332 5.33366C11.1564 5.33366 10.9869 5.26342 10.8618 5.1384C10.7368 5.01337 10.6666 4.8438 10.6666 4.66699V2.66699H5.33325V4.66699C5.33325 4.8438 5.26301 5.01337 5.13799 5.1384C5.01296 5.26342 4.84339 5.33366 4.66658 5.33366C4.48977 5.33366 4.3202 5.26342 4.19518 5.1384C4.07016 5.01337 3.99992 4.8438 3.99992 4.66699V2.66699H3.33325C2.80282 2.66699 2.29411 2.87771 1.91904 3.25278C1.54397 3.62785 1.33325 4.13656 1.33325 4.66699V6.66699H14.6666V4.66699C14.6666 4.13656 14.4559 3.62785 14.0808 3.25278C13.7057 2.87771 13.197 2.66699 12.6666 2.66699Z" fill="#FA6D2F"/>
</svg>
