<svg width="16" height="16" viewBox="0 0 16 16" fill="none" xmlns="http://www.w3.org/2000/svg">
<path d="M9.99992 7.3335H14.6666V8.66683H9.99992V7.3335ZM10.6666 10.0002H14.6666V11.3335H10.6666V10.0002ZM9.33325 4.66683H14.6666V6.00016H9.33325V4.66683ZM2.66659 12.6668H9.33325V12.0002C9.33325 10.1622 7.83792 8.66683 5.99992 8.66683H4.66658C2.82859 8.66683 1.33325 10.1622 1.33325 12.0002V12.6668H2.66659ZM5.33325 8.00016C6.66325 8.00016 7.66658 6.99683 7.66658 5.66683C7.66658 4.33683 6.66325 3.3335 5.33325 3.3335C4.00325 3.3335 2.99992 4.33683 2.99992 5.66683C2.99992 6.99683 4.00325 8.00016 5.33325 8.00016Z" fill="#EE9B05"/>
</svg>
