<svg width="30" height="30" viewBox="0 0 30 30" fill="none" xmlns="http://www.w3.org/2000/svg">
<path d="M6.25 0C4.5924 0 3.00269 0.65848 1.83058 1.83058C0.65848 3.00269 0 4.5924 0 6.25V18.75C0 19.5708 0.161661 20.3835 0.475753 21.1418C0.789845 21.9001 1.25022 22.5891 1.83058 23.1694C3.00269 24.3415 4.5924 25 6.25 25H18.75C19.5708 25 20.3835 24.8383 21.1418 24.5242C21.9001 24.2102 22.5891 23.7498 23.1694 23.1694C23.7498 22.5891 24.2102 21.9001 24.5242 21.1418C24.8383 20.3835 25 19.5708 25 18.75V6.25C25 5.42924 24.8383 4.61651 24.5242 3.85823C24.2102 3.09994 23.7498 2.41095 23.1694 1.83058C22.5891 1.25022 21.9001 0.789845 21.1418 0.475753C20.3835 0.161661 19.5708 0 18.75 0H6.25ZM12.5 11.25C11.5054 11.25 10.5516 10.8549 9.84835 10.1517C9.14509 9.44839 8.75 8.49456 8.75 7.5C8.75 6.50544 9.14509 5.55161 9.84835 4.84835C10.5516 4.14509 11.5054 3.75 12.5 3.75C13.4946 3.75 14.4484 4.14509 15.1517 4.84835C15.8549 5.55161 16.25 6.50544 16.25 7.5C16.25 8.49456 15.8549 9.44839 15.1517 10.1517C14.4484 10.8549 13.4946 11.25 12.5 11.25V11.25ZM8.125 12.8125H16.875C18.4275 12.8125 19.6875 14.0725 19.6875 15.625V16.25C19.6875 17.25 19.26 18.465 18.0875 19.4075C16.9275 20.3375 15.1275 20.9375 12.495 20.9375C9.8575 20.9375 8.06 20.325 6.905 19.3875C5.74 18.4425 5.3125 17.2325 5.3125 16.25V15.625C5.3125 14.07 6.5725 12.8125 8.125 12.8125V12.8125ZM6.25 27.5C7.39 29.0175 9.205 30 11.25 30H18.75C21.7337 30 24.5952 28.8147 26.705 26.705C28.8147 24.5952 30 21.7337 30 18.75V11.25C30 9.205 29.0175 7.39 27.5 6.25V18.75C27.5 21.0706 26.5781 23.2962 24.9372 24.9372C23.2962 26.5781 21.0706 27.5 18.75 27.5H6.25Z" fill="#9470C1"/>
</svg>
