<svg width="16" height="16" viewBox="0 0 16 16" fill="none" xmlns="http://www.w3.org/2000/svg">
<path d="M11.3334 15.1665H4.66675C4.39341 15.1665 4.16675 14.9398 4.16675 14.6665C4.16675 14.3932 4.39341 14.1665 4.66675 14.1665H11.3334C11.6067 14.1665 11.8334 14.3932 11.8334 14.6665C11.8334 14.9398 11.6067 15.1665 11.3334 15.1665Z" fill="#16A085"/>
<path d="M11.9999 1.3335H3.99992C2.52659 1.3335 1.33325 2.52683 1.33325 4.00016V10.0002C1.33325 11.4735 2.52659 12.6668 3.99992 12.6668H11.9999C13.4733 12.6668 14.6666 11.4735 14.6666 10.0002V4.00016C14.6666 2.52683 13.4733 1.3335 11.9999 1.3335ZM6.65992 4.88016C7.03325 4.88016 7.33325 5.18016 7.33325 5.54683C7.33325 5.9135 7.03325 6.2135 6.66658 6.2135C6.29992 6.2135 5.99992 5.9135 5.99992 5.54683C5.99992 5.18016 6.29325 4.88016 6.65992 4.88016ZM4.55992 4.88016C4.93325 4.88016 5.23325 5.18016 5.23325 5.54683C5.23325 5.9135 4.93325 6.2135 4.56659 6.2135C4.19992 6.2135 3.89992 5.9135 3.89992 5.54683C3.89992 5.18016 4.18659 4.88016 4.55992 4.88016ZM11.5066 9.90683H4.50659C4.22659 9.90683 3.99992 9.68016 3.99992 9.40683C3.99992 9.1335 4.21992 8.90683 4.49325 8.90683H11.5133C11.7866 8.90683 12.0133 9.1335 12.0133 9.40683C12.0133 9.68016 11.7866 9.90683 11.5066 9.90683ZM11.5066 6.04683H9.05325C8.77992 6.04683 8.55325 5.82016 8.55325 5.54683C8.55325 5.2735 8.77992 5.04683 9.05325 5.04683H11.5066C11.7799 5.04683 12.0066 5.2735 12.0066 5.54683C12.0066 5.82016 11.7866 6.04683 11.5066 6.04683Z" fill="#16A085"/>
</svg>
