<svg width="9" height="9" viewBox="0 0 9 9" fill="none" xmlns="http://www.w3.org/2000/svg">
<path d="M5.1225 1.6125C5.10521 1.5278 5.05919 1.45167 4.99222 1.397C4.92525 1.34233 4.84145 1.31248 4.755 1.3125H2.0625C1.96304 1.3125 1.86766 1.35201 1.79734 1.42233C1.72701 1.49266 1.6875 1.58804 1.6875 1.6875V7.3125C1.6875 7.41196 1.72701 7.50734 1.79734 7.57767C1.86766 7.64799 1.96304 7.6875 2.0625 7.6875C2.16196 7.6875 2.25734 7.64799 2.32766 7.57767C2.39799 7.50734 2.4375 7.41196 2.4375 7.3125V5.0625H4.5375L4.6275 5.5125C4.66125 5.688 4.81612 5.81437 4.995 5.8125H6.9375C7.03696 5.8125 7.13234 5.77299 7.20267 5.70266C7.27299 5.63234 7.3125 5.53696 7.3125 5.4375V2.4375C7.3125 2.33804 7.27299 2.24266 7.20267 2.17234C7.13234 2.10201 7.03696 2.0625 6.9375 2.0625H5.2125L5.1225 1.6125Z" fill="white"/>
</svg>
