<svg width="42" height="34" viewBox="0 0 42 34" fill="none" xmlns="http://www.w3.org/2000/svg">
<g clip-path="url(#clip0_1_1822)">
<path d="M13.6501 23.375C13.4933 23.375 13.3364 23.3982 13.1868 23.4474C12.3363 23.727 11.4418 23.9062 10.5001 23.9062C9.55839 23.9062 8.66392 23.727 7.81276 23.4474C7.66314 23.3982 7.50695 23.375 7.35011 23.375C3.27742 23.375 -0.0215502 26.7272 0.000106016 30.8537C0.00929352 32.5975 1.42614 34 3.15011 34H17.8501C19.5741 34 20.9909 32.5975 21.0001 30.8537C21.0218 26.7272 17.7228 23.375 13.6501 23.375ZM10.5001 21.25C13.9795 21.25 16.8001 18.3959 16.8001 14.875C16.8001 11.3541 13.9795 8.5 10.5001 8.5C7.02067 8.5 4.20011 11.3541 4.20011 14.875C4.20011 18.3959 7.02067 21.25 10.5001 21.25ZM38.8501 0H13.6501C11.913 0 10.5001 1.47754 10.5001 3.29309V6.375C12.037 6.375 13.4598 6.82523 14.7001 7.55703V4.25H37.8001V23.375H33.6001V19.125H25.2001V23.375H20.1969C21.4503 24.4833 22.3704 25.9469 22.8015 27.625H38.8501C40.5872 27.625 42.0001 26.1475 42.0001 24.3319V3.29309C42.0001 1.47754 40.5872 0 38.8501 0Z" fill="#547188"/>
</g>
<defs>
<clipPath id="clip0_1_1822">
<rect width="42" height="34" fill="white"/>
</clipPath>
</defs>
</svg>
