<svg width="40" height="40" viewBox="0 0 40 40" fill="none" xmlns="http://www.w3.org/2000/svg">
<g clip-path="url(#clip0_1_1996)">
<path d="M35.1666 15.1664C35.1666 6.24978 27.4166 -0.916889 18.2499 0.0831113C11.2499 0.833111 5.58325 6.58311 4.91659 13.6664C4.33325 19.5831 7.16659 24.9164 11.7499 27.9164C13.0833 28.7498 13.9166 30.2498 13.9166 31.8331V37.7498H26.1666V31.8331C26.1666 30.2498 26.9999 28.8331 28.3333 27.9164C32.4166 25.1664 35.1666 20.4998 35.1666 15.1664Z" fill="white"/>
<path d="M23.3332 40.0002H16.6665C16.0832 40.0002 15.6665 39.5835 15.6665 39.0002V37.6668H24.3332V39.0002C24.3332 39.5835 23.9165 40.0002 23.3332 40.0002ZM13.9165 30.8335H26.1665V37.5835H13.9165V30.8335Z" fill="#6D7D91"/>
<path d="M29.6668 17.1665V13.5832L28.0835 13.3332C27.9168 12.5832 27.5835 11.8332 27.1668 11.0832L28.0835 9.74984L25.5835 7.24984L24.2502 8.1665C23.5835 7.74984 22.8335 7.4165 22.0002 7.24984L21.7502 5.6665H18.1668L17.9168 7.24984C17.1668 7.4165 16.4168 7.74984 15.6668 8.1665L14.3335 7.24984L11.8335 9.74984L12.7502 11.0832C12.5002 11.7498 12.1668 12.4998 11.9168 13.3332L10.3335 13.5832V17.1665L11.9168 17.4165C12.0835 18.1665 12.4168 18.9165 12.8335 19.6665L11.9168 20.9998L14.4168 23.4998L15.7502 22.5832C16.4168 22.9998 17.1668 23.3332 18.0002 23.4998L18.2502 25.0832H21.8335L22.0835 23.4998C22.8335 23.3332 23.5835 22.9998 24.3335 22.5832L25.6668 23.4998L28.1668 20.9998L27.2502 19.6665C27.6668 18.9998 28.0002 18.2498 28.1668 17.4165L29.6668 17.1665ZM20.0002 19.9165C17.5002 19.9165 15.4168 17.8332 15.4168 15.3332C15.4168 12.8332 17.5002 10.7498 20.0002 10.7498C22.5002 10.7498 24.5835 12.8332 24.5835 15.3332C24.5835 17.8332 22.5002 19.9165 20.0002 19.9165Z" fill="#9470C1"/>
<path d="M26.5002 32.6668H13.5002C13.0002 32.6668 12.5835 32.2502 12.5835 31.7502C12.5835 31.2502 13.0002 30.8335 13.5002 30.8335H26.4168C26.9168 30.8335 27.3335 31.2502 27.3335 31.7502C27.4168 32.2502 27.0002 32.6668 26.5002 32.6668ZM26.5002 35.1668H13.5002C13.0002 35.1668 12.5835 34.7502 12.5835 34.2502C12.5835 33.7502 13.0002 33.3335 13.5002 33.3335H26.4168C26.9168 33.3335 27.3335 33.7502 27.3335 34.2502C27.4168 34.7502 27.0002 35.1668 26.5002 35.1668ZM26.5002 37.6668H13.5002C13.0002 37.6668 12.5835 37.2502 12.5835 36.7502C12.5835 36.2502 13.0002 35.8335 13.5002 35.8335H26.4168C26.9168 35.8335 27.3335 36.2502 27.3335 36.7502C27.4168 37.2502 27.0002 37.6668 26.5002 37.6668Z" fill="#94A2B3"/>
</g>
<defs>
<clipPath id="clip0_1_1996">
<rect width="40" height="40" fill="white"/>
</clipPath>
</defs>
</svg>
