<svg width="40" height="40" viewBox="0 0 40 40" fill="none" xmlns="http://www.w3.org/2000/svg">
<path d="M29.2153 12.9492C29.0986 12.9325 28.9819 12.9325 28.8653 12.9492C26.2819 12.8659 24.2319 10.7492 24.2319 8.14919C24.2319 5.49919 26.3819 3.33252 29.0486 3.33252C31.6986 3.33252 33.8653 5.48252 33.8653 8.14919C33.8486 10.7492 31.7986 12.8659 29.2153 12.9492Z" fill="#5C8EFF"/>
<path d="M34.6528 24.5007C32.7861 25.7507 30.1694 26.2173 27.7528 25.9007C28.3861 24.534 28.7194 23.0173 28.7361 21.4173C28.7361 19.7507 28.3694 18.1673 27.6694 16.784C30.1361 16.4507 32.7528 16.9173 34.6361 18.1673C37.2694 19.9007 37.2694 22.7507 34.6528 24.5007Z" fill="#5C8EFF"/>
<path d="M10.7334 12.9492C10.8501 12.9325 10.9668 12.9325 11.0834 12.9492C13.6668 12.8659 15.7168 10.7492 15.7168 8.14919C15.7168 5.48252 13.5668 3.33252 10.9001 3.33252C8.2501 3.33252 6.1001 5.48252 6.1001 8.14919C6.1001 10.7492 8.1501 12.8659 10.7334 12.9492Z" fill="#5C8EFF"/>
<path d="M10.9183 21.4177C10.9183 23.0343 11.2683 24.5677 11.9017 25.951C9.55166 26.201 7.10166 25.701 5.30166 24.5177C2.66833 22.7677 2.66833 19.9177 5.30166 18.1677C7.08499 16.9677 9.60166 16.4843 11.9683 16.751C11.285 18.151 10.9183 19.7343 10.9183 21.4177Z" fill="#5C8EFF"/>
<path d="M20.2015 26.45C20.0682 26.4333 19.9182 26.4333 19.7682 26.45C16.7015 26.35 14.2515 23.8333 14.2515 20.7333C14.2681 17.5667 16.8182 15 20.0015 15C23.1682 15 25.7348 17.5667 25.7348 20.7333C25.7182 23.8333 23.2848 26.35 20.2015 26.45Z" fill="#EF727A"/>
<path d="M14.7845 29.9019C12.2678 31.5852 12.2678 34.3519 14.7845 36.0185C17.6512 37.9352 22.3512 37.9352 25.2178 36.0185C27.7345 34.3352 27.7345 31.5685 25.2178 29.9019C22.3678 27.9852 17.6678 27.9852 14.7845 29.9019Z" fill="#EF727A"/>
</svg>
